# xmcd
#
# Track frame offsets:
#	182
#	11700
#	30375
#	42710
#	55902
#	70502
#	87677
#	98777
#	111080
#	124395
#	134022
#	145877
#	167775
#	181217
#
# Disc length: 2533
#
# Revision: 1
# Processed by: cddbd v1.5.1PL0 Copyright (c) Steve Scherf et al.
# Submitted via: VisiTrax 2.9.2.167 - For more info visit www.synapsa.com
# Normalized: r0:DSETVAR1
#
DISCID=cb09e30e
DTITLE=Various Artist - Totally Country - The essential country album
DYEAR=1900
DGENRE=
TTITLE0=Rabbitt, Eddie - B-b-b-burnin' up with love
TTITLE1=Newton, Juice - Angel of the morning
TTITLE2=Tucker, Tanay - Strong enough to benf
TTITLE3=Bogguss, Suzy - I want to be a cowboy's sweetheart
TTITLE4=Gayle, Crystal - Cry me a river
TTITLE5=Nitty Gritty Dirt Band - All I have to do is dream
TTITLE6=LeDoux, Chris - So you want to be a cowboy
TTITLE7=Spears, Billie Jo - What I've got in mind
TTITLE8=Campbell, Glen - Southern nights
TTITLE9=Jones, George - The race is on
TTITLE10=Ford, Tennessee Ernie - Sixteen tons
TTITLE11=Seals, Dan - Everthing that glitters (is not gold)
TTITLE12=Highway 101 - Home on the range
TTITLE13=Wanda Jackson - Jambalaya (on the bayou)
EXTD=
EXTT0=
EXTT1=
EXTT2=
EXTT3=
EXTT4=
EXTT5=
EXTT6=
EXTT7=
EXTT8=
EXTT9=
EXTT10=
EXTT11=
EXTT12=
EXTT13=
PLAYORDER=
